<?xml version="1.0" encoding="utf-8"?><svg xmlns="http://www.w3.org/2000/svg" viewBox="0 0 2000 1809.6"><title>Schooners_S</title><path class="st0" d="M444.5 1710.3h618.3c229.8 0 462.2-140.4 514.3-310.7l89.5-292.2c44.3-145.1-53.7-271.5-236.4-303.8L900 709.3c-35.9-4.7-56-30-46.9-59.9l47.1-154.3c10-32.2 55.5-59.8 102.1-59.8H1285c46.6 0 75.4 27.5 65.6 59.8l-35.9 117.3h503.2l61.9-202.4c52.1-170.3-94.5-310.8-324.4-310.8H259.2s247 25.1 163.5 310.9l-89.2 292c-44.4 145 53.6 271.6 236.3 304l530.3 94.4c39 4.4 56.1 29.8 46.9 59.6l-47.1 154.1c-9.8 32.4-55.6 59.9-102.2 59.9H715.1c-46.6 0-75.3-27.5-65.5-59.9l35.9-117.1H182.3l-62 202.4c-52.1 170.4 94.4 310.8 324.2 310.8z" fill="#FFF"/></svg>