<?xml version="1.0" encoding="utf-8"?><svg xmlns="http://www.w3.org/2000/svg" viewBox="0 32 149.7 135.2"><path class="st0" d="M75.7 32c-31.8.4-56 11-74 24.4v86.4c18 13.4 42.2 23.9 74 24.4 31.7-.4 56-11 74-24.4V56.3c-18-13.3-42.3-23.9-74-24.3" fill="#E5E5E5"/><path class="st1" d="M83.1 150.3l-.9-2.1-3.1 3.6s1.1-6.8 1.2-6.9c-.1.1-2.3 1.2-2.3 1.2l-2.2-4.6-2.2 4.6-2.3-1.2c.1.1 1.2 6.9 1.2 6.9l-3.1-3.6-.9 2.1-3.4-.7 1 4.2-1 .5c2 .5 5.5 1.1 10.9 1.1 5.1 0 8.3-.6 10.3-1.2l-.9-.5 1-4.2-3.3.8z" fill="#C42127"/><path class="st2" d="M114.9 57.8c-8.6-2.2-17.8-3.8-27.6-4.5-.1-3.1-1-4.7-1.4-5.4-.4.6-1.2 2.2-1.4 5.2-2.4-.2-4.9-.3-7.4-.3-.2-2.8-1-4.2-1.4-4.9-.4.6-1.2 2.1-1.4 4.9-2.5.1-5 .2-7.4.3-.2-2.9-1-4.5-1.4-5.2-.4.7-1.3 2.3-1.4 5.4-9.8.8-19 2.3-27.6 4.5 9-1.1 18.2-1.9 27.7-2.3.2 2.7 1 4.2 1.4 4.8.4-.6 1.2-2.1 1.4-4.9 2.4-.1 4.9-.2 7.4-.2.2 2.9 1 4.5 1.4 5.1.4-.6 1.2-2.2 1.4-5.1 2.5 0 4.9.1 7.4.2.2 2.8 1 4.3 1.4 4.9.4-.6 1.2-2.1 1.4-4.8 9.3.4 18.5 1.2 27.5 2.3M89 129.1H73.2c-8.6 0-11.3-3.5-11.3-11.4V88c0-6.7 1.9-11.2 10.7-11.2H89l.5.5v10.1H75.1v31.2h14.4v10.1l-.5.4zm23.2-41.6v10.4h13.4v10.5h-13.4v20.4H99V76.9h28.2v10.6zm-85.8 41.3V76.9h13.2v41.4h15v10.5z" fill="#202020"/></svg>